<?xml version="1.0" encoding="UTF-8"?><svg id="a" xmlns="http://www.w3.org/2000/svg" viewBox="0 0 469.48 62.8"><defs><style>.b{fill:#fff6f0;}</style></defs><path class="b" d="M43.17,34.8c.16,4.78-1.74,8.5-5.71,11.16-3.97,2.66-9.37,3.99-16.19,3.99H0v-.11c1.31-.12,2.4-.66,3.27-1.62,.87-.96,1.3-2.09,1.3-3.38V5.13c0-1.31-.44-2.45-1.32-3.41C2.37,.76,1.29,.22,0,.11v-.11H22.15c3.84,.23,7.03,1.48,9.54,3.73,2.52,2.25,3.78,5.1,3.78,8.54,0,3.07-.74,5.57-2.21,7.49-1.48,1.92-3.81,3.46-7,4.61h.39c1.76,.02,3.4,.15,4.92,.37,1.52,.22,3,.59,4.43,1.11,1.43,.52,2.65,1.16,3.67,1.93s1.85,1.76,2.48,2.95,.97,2.55,1.02,4.08ZM10.41,27.88v2.71c4.34-2.04,8.39-3.93,12.16-5.66,4.55-2.09,6.82-6.19,6.82-12.3,0-1.1-.08-2.13-.25-3.09-.16-.96-.51-2-1.04-3.11-.53-1.11-1.23-2.07-2.09-2.88-.87-.81-2.08-1.49-3.64-2.06-1.56-.56-3.37-.87-5.43-.91h-6.54V27.88Zm13.01,21.02c2.44,0,4.49-.21,6.17-.62,1.68-.41,3.11-1.11,4.31-2.09s2.03-2.34,2.51-4.08c.48-1.73,.64-3.88,.47-6.43-.05-.77-.17-1.56-.37-2.37-.2-.81-.56-1.74-1.09-2.79s-1.18-1.98-1.95-2.78c-.77-.8-1.85-1.47-3.22-2.02-1.37-.55-2.92-.83-4.66-.83-.33,0-.56,.01-.7,.04-.84,.09-1.72,.35-2.64,.77l-11.85,5.55v16.07c4.03,1.05,8.37,1.58,13.01,1.58Z"/><path class="b" d="M99.09,50.06h4.55c-.24,1.37-.66,2.67-1.27,3.9-1.28,2.62-3.25,4.7-5.91,6.24-1.39,.86-3.13,1.54-5.24,2.03-2.34,.54-4.86,.69-7.54,.43-3.49-.35-6.95-1.66-10.38-3.92-1.98-1.31-3.96-3-5.96-5.07-1.2-1.24-4.71-5.22-10.53-11.92-2.11-2.42-3.69-4.22-4.76-5.38,.08,.02,.23,.06,.45,.12-.06-.02-.16-.04-.3-.08-.14-.04-.23-.07-.28-.08v10.34c.02,.88,.32,1.64,.91,2.3,.59,.65,1.32,1.02,2.2,1.1v.07h-10.22v-.07c.88-.08,1.61-.45,2.21-1.1,.6-.65,.9-1.43,.9-2.32V19.58c-.02-.88-.32-1.64-.91-2.28-.59-.65-1.32-1.01-2.2-1.09v-.07h16.22c2.49,0,4.68,.34,6.58,1.03,1.9,.69,3.41,1.75,4.55,3.19,1.13,1.44,1.7,3.18,1.7,5.2,0,3.49-1.34,6.38-4.03,8.65-2.69,2.27-6.2,3.35-10.54,3.24-.94-.05-1.44-.07-1.48-.07,1.34,1.52,2.8,3.18,4.37,4.99,1.57,1.81,2.82,3.25,3.74,4.33,.92,1.08,1.43,1.66,1.51,1.73,3.08,3.48,5.54,6.09,7.39,7.85,1.28,1.2,2.6,2.23,3.97,3.09,1.37,.86,2.56,1.49,3.55,1.88,1,.39,1.98,.68,2.94,.87,.97,.19,1.65,.29,2.06,.31,.41,.02,.74,.02,.99,0,1.05-.08,2.04-.27,2.96-.57,.92-.3,1.65-.61,2.19-.91,.54-.3,1.08-.72,1.63-1.26,.54-.53,.89-.91,1.05-1.12,.16-.21,.4-.55,.72-.99,1.12-1.56,1.81-3.34,2.08-5.34,.1-.78,.14-1.51,.12-2.18ZM51.93,16.62v19.43c.49,.11,1.1,.23,1.82,.36,.72,.13,1.31,.23,1.78,.3,.47,.07,.72,.11,.75,.11s.08,0,.14,.01c.06,0,.11,.01,.14,.01s.06,0,.1,.01c.03,0,.06,.01,.07,.01,.53,.06,1.3,.11,2.32,.14,.06,0,.16,0,.28,.01,.12,0,.2,.01,.25,.01,1.72,0,3.23-.24,4.51-.73,1.28-.49,2.31-1.17,3.09-2.06,.77-.89,1.35-1.91,1.73-3.07,.38-1.16,.57-2.46,.57-3.9,0-.97-.05-1.85-.16-2.63-.1-.78-.29-1.6-.55-2.45-.26-.85-.65-1.6-1.17-2.23-.52-.63-1.17-1.21-1.95-1.73-.78-.53-1.77-.92-2.98-1.2-1.2-.27-2.59-.41-4.15-.41h-6.6Zm1.6,20.12h-.02l-.05-.02,.02,.02h.05Z"/><path class="b" d="M93.05,46.66c2.4,.27,4.48-.26,6.23-1.6,1.75-1.34,2.96-3.33,3.65-5.99h3.57c-1.31,2.56-3.22,4.58-5.74,6.05-2.52,1.48-5.38,2.21-8.58,2.21s-5.79-.66-8.23-1.98c-2.44-1.32-4.36-3.17-5.74-5.57-1.39-2.39-2.08-5.1-2.08-8.13s.69-5.74,2.08-8.13c1.39-2.39,3.3-4.24,5.74-5.55,2.44-1.31,5.19-1.96,8.23-1.96,4.35,0,8.01,1.3,10.96,3.9,2.95,2.6,4.61,6,4.98,10.2h-27.25c.14,2.68,.7,5.21,1.7,7.6,1,2.39,2.41,4.42,4.25,6.08,1.84,1.66,3.92,2.62,6.24,2.87Zm-12.1-20.04c-.12,.94-.16,1.94-.12,3.02h22.15c-.47-2.21-1.23-4.23-2.27-6.08-1.04-1.85-2.39-3.39-4.03-4.64-1.64-1.25-3.45-1.99-5.42-2.23-2.75-.31-5.06,.42-6.93,2.18-1.87,1.77-2.99,4.35-3.38,7.75Z"/><path class="b" d="M127.45,46.66c2.4,.27,4.48-.26,6.23-1.6,1.75-1.34,2.96-3.33,3.65-5.99h3.57c-1.31,2.56-3.22,4.58-5.74,6.05-2.52,1.48-5.38,2.21-8.58,2.21s-5.79-.66-8.23-1.98c-2.44-1.32-4.36-3.17-5.74-5.57-1.39-2.39-2.08-5.1-2.08-8.13s.69-5.74,2.08-8.13c1.39-2.39,3.3-4.24,5.74-5.55,2.44-1.31,5.19-1.96,8.23-1.96,4.35,0,8.01,1.3,10.96,3.9,2.95,2.6,4.61,6,4.98,10.2h-27.25c.14,2.68,.7,5.21,1.7,7.6,1,2.39,2.41,4.42,4.25,6.08,1.84,1.66,3.92,2.62,6.24,2.87Zm-12.1-20.04c-.12,.94-.16,1.94-.12,3.02h22.15c-.47-2.21-1.23-4.23-2.27-6.08-1.04-1.85-2.39-3.39-4.03-4.64-1.64-1.25-3.45-1.99-5.42-2.23-2.75-.31-5.06,.42-6.93,2.18-1.87,1.77-2.99,4.35-3.38,7.75Z"/><path class="b" d="M170.37,16.11c-.94,.2-1.87,.84-2.8,1.93-.93,1.09-2.19,3.01-3.79,5.74l-13.21,22.62h6.86c2.23,0,4.47-.58,6.74-1.73,2.27-1.15,4.24-2.66,5.92-4.51l-.79,6.74h-26.25c2.09-.88,4.75-4.1,7.97-9.67l11.95-20.71h-6.65c-2.23,0-4.47,.58-6.72,1.74-2.26,1.16-4.23,2.67-5.93,4.53l.79-6.77h25.93v.09Z"/><path class="b" d="M188.43,46.66c2.4,.27,4.48-.26,6.23-1.6,1.75-1.34,2.96-3.33,3.65-5.99h3.57c-1.31,2.56-3.22,4.58-5.74,6.05-2.52,1.48-5.38,2.21-8.58,2.21s-5.79-.66-8.23-1.98c-2.44-1.32-4.36-3.17-5.74-5.57-1.39-2.39-2.08-5.1-2.08-8.13s.69-5.74,2.08-8.13c1.39-2.39,3.3-4.24,5.74-5.55,2.44-1.31,5.19-1.96,8.23-1.96,4.35,0,8.01,1.3,10.96,3.9,2.95,2.6,4.61,6,4.98,10.2h-27.25c.14,2.68,.7,5.21,1.7,7.6,1,2.39,2.41,4.42,4.25,6.08,1.84,1.66,3.92,2.62,6.24,2.87Zm-12.1-20.04c-.12,.94-.16,1.94-.12,3.02h22.15c-.47-2.21-1.23-4.23-2.27-6.08-1.04-1.85-2.39-3.39-4.03-4.64-1.64-1.25-3.45-1.99-5.42-2.23-2.75-.31-5.06,.42-6.93,2.18-1.87,1.77-2.99,4.35-3.38,7.75Z"/><path class="b" d="M269.11,34.8c.16,4.78-1.74,8.5-5.71,11.16-3.97,2.66-9.37,3.99-16.19,3.99h-21.27v-.11c1.31-.12,2.4-.66,3.27-1.62,.87-.96,1.3-2.09,1.3-3.38V5.13c0-1.31-.44-2.45-1.32-3.41-.88-.96-1.96-1.5-3.25-1.62v-.11h22.15c3.84,.23,7.03,1.48,9.54,3.73s3.78,5.1,3.78,8.54c0,3.07-.74,5.57-2.21,7.49-1.48,1.92-3.81,3.46-7,4.61h.39c1.76,.02,3.4,.15,4.92,.37,1.52,.22,3,.59,4.43,1.11,1.43,.52,2.65,1.16,3.67,1.93s1.85,1.76,2.48,2.95,.97,2.55,1.02,4.08Zm-32.77-6.93v2.71c4.34-2.04,8.39-3.93,12.16-5.66,4.55-2.09,6.82-6.19,6.82-12.3,0-1.1-.08-2.13-.25-3.09-.16-.96-.51-2-1.04-3.11-.53-1.11-1.22-2.07-2.09-2.88s-2.08-1.49-3.64-2.06c-1.56-.56-3.37-.87-5.43-.91h-6.54V27.88Zm13.01,21.02c2.44,0,4.49-.21,6.17-.62,1.68-.41,3.11-1.11,4.31-2.09s2.03-2.34,2.51-4.08c.48-1.73,.64-3.88,.47-6.43-.05-.77-.17-1.56-.37-2.37s-.56-1.74-1.09-2.79-1.18-1.98-1.95-2.78c-.77-.8-1.85-1.47-3.22-2.02-1.37-.55-2.92-.83-4.66-.83-.33,0-.56,.01-.7,.04-.84,.09-1.72,.35-2.64,.77l-11.85,5.55v16.07c4.03,1.05,8.37,1.58,13.01,1.58Z"/><path class="b" d="M287.66,17.19c2.13,0,4.15,.36,6.05,1.08s3.56,1.72,4.97,3.01c1.42,1.29,2.54,2.91,3.36,4.85s1.24,4.07,1.24,6.38-.41,4.44-1.24,6.38-1.95,3.56-3.36,4.86c-1.41,1.3-3.07,2.31-4.97,3.02s-3.92,1.08-6.05,1.08-4.17-.36-6.07-1.08-3.56-1.73-4.98-3.02-2.55-2.92-3.37-4.86c-.83-1.94-1.24-4.07-1.24-6.38s.41-4.44,1.24-6.38c.83-1.94,1.95-3.56,3.37-4.85s3.08-2.3,4.98-3.01,3.92-1.08,6.07-1.08Zm1.66,30c3.12,0,5.63-1.14,7.53-3.42s2.85-5.26,2.85-8.92c0-2.86-.58-5.58-1.74-8.17s-2.81-4.71-4.94-6.36-4.48-2.47-7.05-2.47c-3.12,0-5.63,1.14-7.53,3.41s-2.85,5.24-2.85,8.89c0,1.71,.22,3.4,.66,5.08s1.07,3.23,1.9,4.66,1.79,2.69,2.9,3.78,2.38,1.96,3.8,2.58c1.43,.63,2.92,.94,4.48,.94Z"/><path class="b" d="M338.95,43.69l-7.09,3.43c-.8-.84-1.41-1.71-1.83-2.61-.42-.9-.67-1.98-.75-3.25h-.03v-.53c-.41,.27-1.15,.79-2.21,1.54-1.06,.75-1.93,1.34-2.61,1.76-.67,.42-1.51,.9-2.52,1.44-1.01,.54-2.01,.93-3,1.19-1,.25-2,.38-3.02,.38-.7,0-1.37-.06-2.01-.19-.63-.13-1.28-.34-1.93-.63s-1.25-.71-1.77-1.26c-.53-.55-1-1.21-1.42-1.99-.42-.78-.74-1.76-.97-2.93s-.34-2.49-.34-3.96v-14.74s0-.06-.01-.12-.01-.11-.01-.15c-.08-.27-.2-.54-.35-.79-.23-.27-.52-.46-.86-.56-.34-.1-.69-.08-1.04,.06l-1.82,.7v-.23l2.58-1.23,1.05-.5,.47-.23,4.28-2.02v5.98h.03v14.3c0,1.64,.21,3.05,.64,4.23,.43,1.18,1.01,2.08,1.74,2.68,.73,.61,1.49,1.04,2.29,1.3s1.64,.4,2.53,.4c.72,0,1.43-.09,2.12-.26s1.41-.46,2.15-.86c.74-.4,1.37-.77,1.88-1.1,.51-.33,1.21-.82,2.09-1.45,.89-.63,1.57-1.11,2.04-1.42V21.33c0-.59-.24-1.04-.73-1.38-.49-.33-1.01-.39-1.55-.18l-1.85,.7v-.23l4.13-1.96,4.28-2.02v23.14c0,1.33,.2,2.41,.59,3.25,.29,.66,.78,1.12,1.46,1.38,.68,.25,1.36,.24,2.02-.03l1.23-.53,.12,.21Z"/><path class="b" d="M345.82,37.62c0,1.33,.15,2.49,.44,3.47,.29,.99,.67,1.76,1.13,2.31s1.02,1,1.68,1.32,1.31,.53,1.93,.62,1.3,.1,2.02,.04c.39-.02,.79-.12,1.2-.29s.88-.43,1.42-.78c.54-.34,.9-.56,1.1-.66v.38c-.1,.06-.41,.25-.92,.57s-.88,.55-1.1,.67c-.21,.13-.56,.33-1.03,.62-.47,.28-.84,.49-1.11,.63-.27,.14-.6,.29-.97,.45-.37,.17-.69,.29-.95,.37-.26,.08-.5,.12-.72,.12-.86,.02-1.66-.05-2.4-.22-.74-.17-1.49-.49-2.26-.98-.76-.49-1.41-1.13-1.95-1.92s-.97-1.85-1.3-3.18c-.33-1.33-.5-2.87-.5-4.63V19.52h-3.31l7.71-9.14v5.86h10.96l-3.66,3.34c-2.11-.04-4.58-.06-7.41-.06v18.11Z"/><path class="b" d="M365.56,42.84c0,1.07,.37,2.02,1.1,2.83,.73,.81,1.65,1.26,2.74,1.36v.09h-11.92v-.09c1.07-.1,1.98-.55,2.71-1.35,.73-.8,1.1-1.75,1.1-2.84V21.31c0-.59-.24-1.04-.73-1.38-.49-.33-1.01-.39-1.55-.18l-1.82,.7v-.23l4.1-1.93,4.28-2.05v26.6Zm1.46-34.25l-3.6,3.57-3.6-3.57,3.6-3.54,3.6,3.54Z"/><path class="b" d="M409.39,50.31c.52,.64,.83,1.37,.93,2.19,.1,.82,.03,1.61-.21,2.37s-.52,1.43-.82,2.02-.62,1.09-.96,1.52c-.77,.96-1.65,1.73-2.65,2.32s-2.04,.88-3.12,.88c-1.26,0-3.2-.36-5.82-1.08s-5.2-1.5-7.72-2.36c-2.52-.85-5.11-1.64-7.77-2.36s-4.64-1.08-5.96-1.08c-1.44,0-3.22,.68-5.35,2.05l-.16-.53c1.08-.49,3.14-1.38,6.18-2.68s5.64-2.41,7.78-3.36,4.34-2.04,6.59-3.27c2.25-1.23,3.78-2.28,4.58-3.16,2.11-2.28,3.16-5.26,3.16-8.94,0-2.86-.58-5.58-1.74-8.17s-2.81-4.71-4.94-6.36-4.48-2.47-7.05-2.47c-3.1,0-5.6,1.12-7.5,3.36-1.89,2.24-2.85,5.17-2.88,8.78,0,1.64,.21,3.32,.62,5.04,.68,2.86,1.86,5.42,3.54,7.7,1.67,2.28,3.66,3.94,5.96,4.99-1.93-.21-3.72-.71-5.38-1.51-1.66-.8-3.11-1.84-4.35-3.12-1.24-1.28-2.21-2.83-2.91-4.66-.71-1.83-1.06-3.8-1.06-5.94,0-2.98,.66-5.61,1.98-7.88s3.12-4.05,5.4-5.35c2.47-1.39,5.24-2.09,8.29-2.09,2.56,0,4.93,.51,7.12,1.52,2.6,1.2,4.67,3,6.2,5.38,1.54,2.39,2.31,5.19,2.31,8.42,0,2.12-.36,4.11-1.07,5.97-.88,2.26-2.18,4.1-3.92,5.54-.81,.66-2.07,1.45-3.79,2.38s-3.53,1.82-5.41,2.67-3.71,1.65-5.48,2.4-3.22,1.35-4.37,1.8l-1.72,.68c1.24-.33,2.34-.49,3.3-.49,1.39,0,3.39,.31,5.98,.92s5.08,1.29,7.46,2.02,4.78,1.4,7.19,2.02,4.14,.92,5.21,.92c1.31,0,2.34-.4,3.08-1.21,.49-.53,.43-1.28-.19-2.24-.62-.96-1.46-1.61-2.51-1.97l3.98-3.61Z"/><path class="b" d="M437.4,43.69l-7.09,3.43c-.8-.84-1.41-1.71-1.83-2.61-.42-.9-.67-1.98-.75-3.25h-.03v-.53c-.41,.27-1.15,.79-2.21,1.54-1.06,.75-1.93,1.34-2.61,1.76-.67,.42-1.51,.9-2.52,1.44-1.01,.54-2.01,.93-3,1.19-1,.25-2,.38-3.02,.38-.7,0-1.37-.06-2.01-.19-.63-.13-1.28-.34-1.93-.63s-1.25-.71-1.77-1.26c-.53-.55-1-1.21-1.42-1.99-.42-.78-.74-1.76-.97-2.93s-.34-2.49-.34-3.96v-14.74s0-.06-.01-.12-.01-.11-.01-.15c-.08-.27-.2-.54-.35-.79-.23-.27-.52-.46-.86-.56-.34-.1-.69-.08-1.04,.06l-1.82,.7v-.23l2.58-1.23,1.05-.5,.47-.23,4.28-2.02v5.98h.03v14.3c0,1.64,.21,3.05,.64,4.23,.43,1.18,1.01,2.08,1.74,2.68,.73,.61,1.49,1.04,2.29,1.3s1.64,.4,2.53,.4c.72,0,1.43-.09,2.12-.26s1.41-.46,2.15-.86c.74-.4,1.37-.77,1.88-1.1,.51-.33,1.21-.82,2.09-1.45,.89-.63,1.57-1.11,2.04-1.42V21.33c0-.59-.24-1.04-.73-1.38-.49-.33-1.01-.39-1.55-.18l-1.85,.7v-.23l4.13-1.96,4.28-2.02v23.14c0,1.33,.2,2.41,.59,3.25,.29,.66,.78,1.12,1.46,1.38,.68,.25,1.36,.24,2.02-.03l1.23-.53,.12,.21Z"/><path class="b" d="M454.42,46.88c2.4,.27,4.48-.26,6.23-1.6,1.75-1.34,2.96-3.33,3.65-5.99h3.57c-1.31,2.56-3.22,4.58-5.74,6.05-2.52,1.48-5.38,2.21-8.58,2.21s-5.79-.66-8.23-1.98-4.36-3.17-5.74-5.57c-1.39-2.39-2.08-5.1-2.08-8.13s.69-5.74,2.08-8.13c1.39-2.39,3.3-4.24,5.74-5.55,2.44-1.31,5.19-1.96,8.23-1.96,4.36,0,8.01,1.3,10.96,3.9,2.95,2.6,4.61,6,4.98,10.2h-27.25c.14,2.68,.7,5.21,1.7,7.6,1,2.39,2.41,4.42,4.25,6.08,1.84,1.66,3.92,2.62,6.24,2.87Zm-12.1-20.04c-.12,.94-.16,1.94-.12,3.02h22.15c-.47-2.21-1.23-4.23-2.27-6.08s-2.39-3.39-4.03-4.64c-1.64-1.25-3.45-1.99-5.42-2.23-2.75-.31-5.06,.42-6.93,2.18-1.87,1.77-2.99,4.35-3.38,7.75Z"/></svg>