<svg id="ad57ef34-0e73-4426-b702-82d5927d3af5" data-name="Laag 1" xmlns="http://www.w3.org/2000/svg" width="469.48" height="130.1" viewBox="0 0 469.48 130.1"><defs><style>.ff53b212-5294-4769-94fc-c6fbd1c58769{fill:#fff6f0;}</style></defs><title>logo_white</title><path class="ff53b212-5294-4769-94fc-c6fbd1c58769" d="M43.17,69.43a12.13,12.13,0,0,1-5.71,11.16q-6,4-16.19,4H0v-.11a4.81,4.81,0,0,0,3.27-1.61,4.87,4.87,0,0,0,1.3-3.38V39.75a4.9,4.9,0,0,0-1.32-3.41A4.82,4.82,0,0,0,0,34.73v-.11H22.15a15.29,15.29,0,0,1,9.54,3.73,11,11,0,0,1,3.78,8.54,12,12,0,0,1-2.21,7.49,14.88,14.88,0,0,1-7,4.6h.39a39.11,39.11,0,0,1,4.92.37A23.74,23.74,0,0,1,36,60.46a13.68,13.68,0,0,1,3.67,1.94,8.71,8.71,0,0,1,2.48,2.95A9.12,9.12,0,0,1,43.17,69.43ZM10.41,62.5v2.71q6.5-3.06,12.16-5.66,6.83-3.13,6.82-12.31a17.74,17.74,0,0,0-.25-3.09,12.16,12.16,0,0,0-1-3.11A9.52,9.52,0,0,0,26,38.15a10.65,10.65,0,0,0-3.64-2A17.3,17.3,0,0,0,17,35.18H10.41V62.5Zm13,21a26.38,26.38,0,0,0,6.17-.61,10.65,10.65,0,0,0,4.31-2.09,7.82,7.82,0,0,0,2.51-4.08,19.82,19.82,0,0,0,.48-6.43,12.41,12.41,0,0,0-1.46-5.17,11.18,11.18,0,0,0-2-2.78,9.13,9.13,0,0,0-3.22-2,12.41,12.41,0,0,0-4.66-.83,3.93,3.93,0,0,0-.7,0,8.6,8.6,0,0,0-2.64.77L10.41,65.88V81.94A51,51,0,0,0,23.41,83.52Z" transform="translate(0 0)"/><path class="ff53b212-5294-4769-94fc-c6fbd1c58769" d="M99.09,84.69h4.55a14.26,14.26,0,0,1-1.27,3.9,14.55,14.55,0,0,1-5.91,6.24,17.42,17.42,0,0,1-5.24,2,23.37,23.37,0,0,1-7.54.44A23,23,0,0,1,73.3,93.37a36.08,36.08,0,0,1-6-5.07q-1.78-1.86-10.52-11.92Q53.66,72.75,52.05,71l.46.12-.3-.08L51.93,71V81.29a3.45,3.45,0,0,0,.91,2.3,3.3,3.3,0,0,0,2.21,1.1v.07H44.83v-.07a3.43,3.43,0,0,0,3.11-3.42V54.21A3.41,3.41,0,0,0,47,51.92a3.26,3.26,0,0,0-2.2-1.09v-.07H61.05a19.22,19.22,0,0,1,6.58,1A9.92,9.92,0,0,1,72.18,55a8.2,8.2,0,0,1,1.69,5.21,10.84,10.84,0,0,1-4,8.65q-4,3.41-10.54,3.24L57.82,72q2,2.26,4.37,5l3.74,4.33c.93,1.08,1.43,1.66,1.51,1.74q4.62,5.22,7.39,7.85a26.69,26.69,0,0,0,4,3.08,21.68,21.68,0,0,0,3.56,1.88,17.84,17.84,0,0,0,2.94.88,16.08,16.08,0,0,0,2.06.31h1a12.44,12.44,0,0,0,3-.58,12,12,0,0,0,2.19-.91,7.48,7.48,0,0,0,1.63-1.25,12.36,12.36,0,0,0,1-1.13q.24-.31.72-1A11.68,11.68,0,0,0,99,86.86,13.84,13.84,0,0,0,99.09,84.69ZM51.93,51.24V70.67c.5.11,1.11.23,1.82.35l1.79.3c.47.08.72.11.75.11h.14l.15,0h.16c.53.06,1.3.11,2.32.14l.28,0h.25a12.85,12.85,0,0,0,4.51-.73,7.74,7.74,0,0,0,3.09-2.06,8.85,8.85,0,0,0,1.73-3.07,12.57,12.57,0,0,0,.58-3.9,20.91,20.91,0,0,0-.16-2.64,14.94,14.94,0,0,0-.55-2.45,6.37,6.37,0,0,0-1.17-2.22,9.22,9.22,0,0,0-2-1.74,8.88,8.88,0,0,0-3-1.19,18.45,18.45,0,0,0-4.15-.41Zm1.61,20.12h0l0,0,0,0Z" transform="translate(0 0)"/><path class="ff53b212-5294-4769-94fc-c6fbd1c58769" d="M93.05,81.28a8.29,8.29,0,0,0,6.22-1.59,10.54,10.54,0,0,0,3.65-6h3.57a14.6,14.6,0,0,1-5.74,6A16.71,16.71,0,0,1,92.17,82a17,17,0,0,1-8.23-2,14.4,14.4,0,0,1-5.75-5.57,16.93,16.93,0,0,1,0-16.26,14.35,14.35,0,0,1,5.75-5.55,17.11,17.11,0,0,1,8.23-2,16,16,0,0,1,11,3.9,14.78,14.78,0,0,1,5,10.19H80.86a22.57,22.57,0,0,0,1.7,7.6,16.7,16.7,0,0,0,4.25,6.08A10.83,10.83,0,0,0,93.05,81.28ZM81,61.24a18.46,18.46,0,0,0-.12,3H103a21.51,21.51,0,0,0-2.27-6.08,15.28,15.28,0,0,0-4-4.64,11,11,0,0,0-5.42-2.23,8.25,8.25,0,0,0-6.93,2.19C82.47,55.26,81.34,57.85,81,61.24Z" transform="translate(0 0)"/><path class="ff53b212-5294-4769-94fc-c6fbd1c58769" d="M127.45,81.28a8.29,8.29,0,0,0,6.22-1.59,10.54,10.54,0,0,0,3.65-6h3.58a14.69,14.69,0,0,1-5.75,6A16.71,16.71,0,0,1,126.57,82a17,17,0,0,1-8.23-2,14.4,14.4,0,0,1-5.75-5.57,16.93,16.93,0,0,1,0-16.26,14.35,14.35,0,0,1,5.75-5.55,17.11,17.11,0,0,1,8.23-2,16,16,0,0,1,11,3.9,14.78,14.78,0,0,1,5,10.19H115.26a22.57,22.57,0,0,0,1.7,7.6,16.7,16.7,0,0,0,4.25,6.08A10.83,10.83,0,0,0,127.45,81.28Zm-12.1-20a18.46,18.46,0,0,0-.12,3h22.15a21.51,21.51,0,0,0-2.27-6.08,15.28,15.28,0,0,0-4-4.64,11,11,0,0,0-5.42-2.23,8.25,8.25,0,0,0-6.93,2.19C116.87,55.26,115.74,57.85,115.35,61.24Z" transform="translate(0 0)"/><path class="ff53b212-5294-4769-94fc-c6fbd1c58769" d="M170.37,50.73a5.24,5.24,0,0,0-2.8,1.93,44.2,44.2,0,0,0-3.79,5.74L150.56,81h6.86a14.81,14.81,0,0,0,6.74-1.73,20.32,20.32,0,0,0,5.92-4.51l-.8,6.74H143q3.14-1.32,8-9.67l12-20.71h-6.65a14.63,14.63,0,0,0-6.73,1.74,21,21,0,0,0-5.93,4.53l.79-6.77h25.93Z" transform="translate(0 0)"/><path class="ff53b212-5294-4769-94fc-c6fbd1c58769" d="M188.43,81.28a8.33,8.33,0,0,0,6.23-1.59,10.59,10.59,0,0,0,3.64-6h3.58a14.69,14.69,0,0,1-5.75,6A16.69,16.69,0,0,1,187.55,82a17,17,0,0,1-8.23-2,14.38,14.38,0,0,1-5.74-5.57,16.93,16.93,0,0,1,0-16.26,14.33,14.33,0,0,1,5.74-5.55,17.11,17.11,0,0,1,8.23-2,16,16,0,0,1,11,3.9,14.74,14.74,0,0,1,5,10.19H176.24a22.81,22.81,0,0,0,1.7,7.6,16.7,16.7,0,0,0,4.25,6.08A10.83,10.83,0,0,0,188.43,81.28Zm-12.1-20a18.46,18.46,0,0,0-.12,3h22.15a21.21,21.21,0,0,0-2.27-6.08,15.15,15.15,0,0,0-4-4.64,11,11,0,0,0-5.42-2.23,8.25,8.25,0,0,0-6.93,2.19C177.85,55.26,176.72,57.85,176.33,61.24Z" transform="translate(0 0)"/><path class="ff53b212-5294-4769-94fc-c6fbd1c58769" d="M269.11,69.43a12.15,12.15,0,0,1-5.71,11.16q-6,4-16.19,4H225.94v-.11a4.81,4.81,0,0,0,3.27-1.61,4.92,4.92,0,0,0,1.3-3.38V39.75a4.9,4.9,0,0,0-1.32-3.41,4.82,4.82,0,0,0-3.25-1.61v-.11h22.15a15.29,15.29,0,0,1,9.54,3.73,11,11,0,0,1,3.78,8.54,12,12,0,0,1-2.21,7.49,14.88,14.88,0,0,1-7,4.6h.39a39.25,39.25,0,0,1,4.92.37,23.74,23.74,0,0,1,4.43,1.11,13.68,13.68,0,0,1,3.67,1.94,8.71,8.71,0,0,1,2.48,2.95A9.25,9.25,0,0,1,269.11,69.43ZM236.34,62.5v2.71q6.51-3.06,12.17-5.66,6.83-3.13,6.82-12.31a17.74,17.74,0,0,0-.25-3.09,12.16,12.16,0,0,0-1-3.11,9.39,9.39,0,0,0-2.1-2.89,10.59,10.59,0,0,0-3.63-2,17.31,17.31,0,0,0-5.44-.92h-6.54V62.5Zm13,21a26.38,26.38,0,0,0,6.17-.61,10.72,10.72,0,0,0,4.31-2.09,7.88,7.88,0,0,0,2.51-4.08,19.82,19.82,0,0,0,.48-6.43,12.41,12.41,0,0,0-1.46-5.17,11.18,11.18,0,0,0-1.95-2.78,9.22,9.22,0,0,0-3.22-2,12.41,12.41,0,0,0-4.66-.83,3.86,3.86,0,0,0-.7,0,8.6,8.6,0,0,0-2.64.77l-11.85,5.56V81.94A51.08,51.08,0,0,0,249.35,83.52Z" transform="translate(0 0)"/><path class="ff53b212-5294-4769-94fc-c6fbd1c58769" d="M287.66,51.81a16.94,16.94,0,0,1,6,1.08,15.17,15.17,0,0,1,5,3,13.65,13.65,0,0,1,3.37,4.85,17,17,0,0,1,0,12.75,13.88,13.88,0,0,1-3.37,4.86,15.19,15.19,0,0,1-5,3,17.7,17.7,0,0,1-12.12,0,15.34,15.34,0,0,1-5-3,13.9,13.9,0,0,1-3.38-4.86,17,17,0,0,1,0-12.75,13.68,13.68,0,0,1,3.38-4.85,15.32,15.32,0,0,1,5-3A17,17,0,0,1,287.66,51.81Zm1.66,30a9.3,9.3,0,0,0,7.53-3.43,13.47,13.47,0,0,0,2.85-8.92A19.76,19.76,0,0,0,298,61.3,16.37,16.37,0,0,0,293,54.94,11.24,11.24,0,0,0,286,52.47a9.34,9.34,0,0,0-7.53,3.41,13.42,13.42,0,0,0-2.85,8.89,19.9,19.9,0,0,0,.66,5.08,19,19,0,0,0,1.89,4.66A18,18,0,0,0,281,78.29a12.53,12.53,0,0,0,3.8,2.58A11,11,0,0,0,289.32,81.82Z" transform="translate(0 0)"/><path class="ff53b212-5294-4769-94fc-c6fbd1c58769" d="M339,78.31l-7.09,3.43A9.85,9.85,0,0,1,330,79.13a8.79,8.79,0,0,1-.74-3.25h0v-.53c-.41.27-1.15.79-2.21,1.54s-1.94,1.34-2.61,1.76-1.52.9-2.52,1.43a13.28,13.28,0,0,1-3,1.19,12.43,12.43,0,0,1-3,.38,10,10,0,0,1-2-.19,9.44,9.44,0,0,1-1.93-.63,5.57,5.57,0,0,1-1.78-1.26,9.29,9.29,0,0,1-1.42-2,10.18,10.18,0,0,1-1-2.93,20.66,20.66,0,0,1-.34-4V56a.68.68,0,0,0,0-.12,1,1,0,0,1,0-.15,3.24,3.24,0,0,0-.35-.79,1.73,1.73,0,0,0-.86-.55,1.62,1.62,0,0,0-1,0l-1.82.71v-.24l2.58-1.23,1.05-.5.47-.23,4.28-2v6h0v14.3a12.39,12.39,0,0,0,.64,4.23,6.11,6.11,0,0,0,1.74,2.69,7.27,7.27,0,0,0,2.29,1.3,8.07,8.07,0,0,0,2.53.39,8.45,8.45,0,0,0,2.13-.26,9.19,9.19,0,0,0,2.15-.86c.74-.4,1.37-.77,1.88-1.1s1.2-.82,2.09-1.45,1.57-1.11,2-1.42V56A1.69,1.69,0,0,0,327,54.4l-1.84.71v-.24l4.13-2,4.27-2V74a7.71,7.71,0,0,0,.59,3.25,2.45,2.45,0,0,0,1.47,1.38,2.62,2.62,0,0,0,2,0l1.23-.53Z" transform="translate(0 0)"/><path class="ff53b212-5294-4769-94fc-c6fbd1c58769" d="M345.82,72.25a12,12,0,0,0,.44,3.47A6.55,6.55,0,0,0,347.38,78a4.87,4.87,0,0,0,1.69,1.32A6.65,6.65,0,0,0,351,80a9.62,9.62,0,0,0,2,0,3.62,3.62,0,0,0,1.2-.29,10.55,10.55,0,0,0,1.42-.78c.54-.34.91-.56,1.1-.66v.38l-.92.57-1.1.68-1,.61a11.66,11.66,0,0,1-1.12.63c-.27.14-.59.29-1,.46a8.74,8.74,0,0,1-1,.36,2.45,2.45,0,0,1-.71.12,9.83,9.83,0,0,1-2.41-.22,7.07,7.07,0,0,1-2.25-1,6.85,6.85,0,0,1-2-1.92,9.86,9.86,0,0,1-1.3-3.18,18.81,18.81,0,0,1-.5-4.63v-17h-3.31l7.7-9.14v5.86h11l-3.66,3.34q-3.17-.06-7.41-.06V72.25Z" transform="translate(0 0)"/><path class="ff53b212-5294-4769-94fc-c6fbd1c58769" d="M365.56,77.46a4.2,4.2,0,0,0,3.83,4.19v.09H357.47v-.09a4.2,4.2,0,0,0,3.81-4.19V55.93a1.59,1.59,0,0,0-.73-1.38,1.61,1.61,0,0,0-1.56-.18l-1.81.71v-.24l4.1-1.93,4.28-2v26.6ZM367,43.21l-3.6,3.58-3.61-3.58,3.61-3.54Z" transform="translate(0 0)"/><path class="ff53b212-5294-4769-94fc-c6fbd1c58769" d="M409.39,84.93a4.28,4.28,0,0,1,.93,2.2,5.4,5.4,0,0,1-.22,2.37,12.3,12.3,0,0,1-.82,2,8.93,8.93,0,0,1-1,1.51,9.81,9.81,0,0,1-2.64,2.32,6.05,6.05,0,0,1-3.12.88,25.15,25.15,0,0,1-5.83-1.07c-2.62-.72-5.2-1.51-7.72-2.36s-5.11-1.64-7.77-2.36a25.39,25.39,0,0,0-6-1.08,10.69,10.69,0,0,0-5.35,2l-.16-.53q1.62-.73,6.18-2.68c3-1.29,5.64-2.41,7.78-3.36s4.35-2,6.6-3.27a19.12,19.12,0,0,0,4.58-3.16,12.68,12.68,0,0,0,3.16-8.94,19.61,19.61,0,0,0-1.75-8.17,16.35,16.35,0,0,0-4.94-6.36,11.24,11.24,0,0,0-7.05-2.47,9.33,9.33,0,0,0-7.5,3.36A13.36,13.36,0,0,0,374,64.61a21.83,21.83,0,0,0,.61,5,21.42,21.42,0,0,0,3.54,7.7,15.34,15.34,0,0,0,6,5,16.35,16.35,0,0,1-5.38-1.51,15.19,15.19,0,0,1-4.35-3.11,13.56,13.56,0,0,1-2.91-4.66,16.24,16.24,0,0,1-1.06-5.94,15.36,15.36,0,0,1,2-7.87,14.3,14.3,0,0,1,5.4-5.35,17.4,17.4,0,0,1,15.4-.58,14.49,14.49,0,0,1,6.21,5.38,15.21,15.21,0,0,1,2.31,8.42,16.6,16.6,0,0,1-1.07,6,13.27,13.27,0,0,1-3.92,5.54A25.89,25.89,0,0,1,392.88,81q-2.58,1.4-5.42,2.66c-1.88.85-3.71,1.65-5.47,2.4s-3.22,1.36-4.37,1.81l-1.72.67a13.45,13.45,0,0,1,3.3-.49,28.38,28.38,0,0,1,6,.92q3.88.93,7.46,2c2.39.74,4.78,1.41,7.19,2A24,24,0,0,0,405,94a4,4,0,0,0,3.08-1.21c.49-.54.42-1.28-.2-2.24a4.79,4.79,0,0,0-2.51-2Z" transform="translate(0 0)"/><path class="ff53b212-5294-4769-94fc-c6fbd1c58769" d="M437.4,78.31l-7.09,3.43a9.85,9.85,0,0,1-1.83-2.61,9,9,0,0,1-.75-3.25h0v-.53c-.41.27-1.15.79-2.22,1.54s-1.93,1.34-2.6,1.76-1.52.9-2.52,1.43a13.17,13.17,0,0,1-3,1.19,12.29,12.29,0,0,1-3,.38,9.94,9.94,0,0,1-2-.19,9.24,9.24,0,0,1-1.93-.63,5.57,5.57,0,0,1-1.78-1.26,9.29,9.29,0,0,1-1.42-2,10.18,10.18,0,0,1-1-2.93,20.66,20.66,0,0,1-.34-4V56s0-.06,0-.12a.86.86,0,0,1,0-.15,3.67,3.67,0,0,0-.35-.79,1.71,1.71,0,0,0-.87-.55,1.62,1.62,0,0,0-1,0l-1.81.71v-.24l2.57-1.23,1.06-.5.47-.23,4.28-2v6h0v14.3a12.39,12.39,0,0,0,.64,4.23,6.11,6.11,0,0,0,1.74,2.69,7.27,7.27,0,0,0,2.29,1.3,8,8,0,0,0,2.53.39,8.51,8.51,0,0,0,2.13-.26,9.19,9.19,0,0,0,2.15-.86c.74-.4,1.37-.77,1.87-1.1s1.21-.82,2.1-1.45,1.57-1.11,2-1.42V56a1.58,1.58,0,0,0-.74-1.38,1.6,1.6,0,0,0-1.55-.18l-1.85.71v-.24l4.14-2,4.27-2V74a7.71,7.71,0,0,0,.59,3.25A2.45,2.45,0,0,0,434,78.66a2.62,2.62,0,0,0,2,0l1.24-.53Z" transform="translate(0 0)"/><path class="ff53b212-5294-4769-94fc-c6fbd1c58769" d="M454.42,81.5a8.3,8.3,0,0,0,6.22-1.59,10.54,10.54,0,0,0,3.65-6h3.57a14.6,14.6,0,0,1-5.74,6,16.71,16.71,0,0,1-8.58,2.21,17,17,0,0,1-8.23-2,14.4,14.4,0,0,1-5.75-5.57,16.93,16.93,0,0,1,0-16.26,14.35,14.35,0,0,1,5.75-5.55,17.11,17.11,0,0,1,8.23-2,16,16,0,0,1,11,3.9,14.82,14.82,0,0,1,5,10.19H442.23a22.57,22.57,0,0,0,1.7,7.6,16.7,16.7,0,0,0,4.25,6.08A10.83,10.83,0,0,0,454.42,81.5Zm-12.1-20a18.46,18.46,0,0,0-.12,3h22.15a21.39,21.39,0,0,0-2.27-6.08,15.28,15.28,0,0,0-4-4.64,11,11,0,0,0-5.42-2.23,8.25,8.25,0,0,0-6.93,2.19C443.84,55.48,442.71,58.07,442.32,61.46Z" transform="translate(0 0)"/><path class="ff53b212-5294-4769-94fc-c6fbd1c58769" d="M303.86,121.8l-3.6,3.54,3.6,3.57,3.6-3.57Z" transform="translate(0 0)"/><path class="ff53b212-5294-4769-94fc-c6fbd1c58769" d="M165.62,122.07l-3.6,3.54,3.6,3.57,3.6-3.57Z" transform="translate(0 0)"/><path class="ff53b212-5294-4769-94fc-c6fbd1c58769" d="M94.22,11.89V.61h1V5.73h7.2V.61h1V11.89h-1V6.61H95.2v5.28Z" transform="translate(0 0)"/><path class="ff53b212-5294-4769-94fc-c6fbd1c58769" d="M115.71,12a5,5,0,0,1-2.68-.7,4.75,4.75,0,0,1-1.75-2,7.14,7.14,0,0,1-.61-3.08,7.13,7.13,0,0,1,.61-3.07,4.46,4.46,0,0,1,1.74-2,5.52,5.52,0,0,1,5.38,0,4.51,4.51,0,0,1,1.75,2,7.07,7.07,0,0,1,.61,3.07,7.19,7.19,0,0,1-.61,3.09,4.69,4.69,0,0,1-1.75,2A5.11,5.11,0,0,1,115.71,12Zm0-.9a3.61,3.61,0,0,0,3-1.28,5.52,5.52,0,0,0,1-3.6,5.5,5.5,0,0,0-1-3.59,4.07,4.07,0,0,0-5.92,0,5.5,5.5,0,0,0-1.05,3.58,5.55,5.55,0,0,0,1.05,3.6A3.61,3.61,0,0,0,115.71,11.12Z" transform="translate(0 0)"/><path class="ff53b212-5294-4769-94fc-c6fbd1c58769" d="M128.06,11.89V.61h.78L136,10.23V.61h.91V11.89h-.77L129,2.26v9.63Z" transform="translate(0 0)"/><path class="ff53b212-5294-4769-94fc-c6fbd1c58769" d="M144.64,11.89V.61h6.94v.85h-6V5.75h5.64V6.6H145.6V11h6v.85Z" transform="translate(0 0)"/><path class="ff53b212-5294-4769-94fc-c6fbd1c58769" d="M162,12a7.86,7.86,0,0,1-2.36-.34,5.1,5.1,0,0,1-1.81-1l.38-.82a6,6,0,0,0,1.71,1,6.12,6.12,0,0,0,2.08.31,3.61,3.61,0,0,0,2.28-.59A1.86,1.86,0,0,0,165.05,9a1.52,1.52,0,0,0-.55-1.25,4.27,4.27,0,0,0-1.82-.7l-1.61-.34a4.45,4.45,0,0,1-2.25-1,2.53,2.53,0,0,1-.74-1.92,2.92,2.92,0,0,1,.5-1.71A3.25,3.25,0,0,1,160,.89a5.55,5.55,0,0,1,5.79,1l-.38.8a4.78,4.78,0,0,0-1.54-1,4.85,4.85,0,0,0-1.8-.31,3.37,3.37,0,0,0-2.16.64,2.07,2.07,0,0,0-.8,1.71,1.77,1.77,0,0,0,.51,1.34,3.34,3.34,0,0,0,1.64.71l1.64.34a5.37,5.37,0,0,1,2.4,1,2.24,2.24,0,0,1,.78,1.81,2.69,2.69,0,0,1-.49,1.61,3.18,3.18,0,0,1-1.4,1.09A5.48,5.48,0,0,1,162,12Z" transform="translate(0 0)"/><path class="ff53b212-5294-4769-94fc-c6fbd1c58769" d="M175.55,11.89V1.49h-4.21V.61h9.41v.88h-4.21v10.4Z" transform="translate(0 0)"/><path class="ff53b212-5294-4769-94fc-c6fbd1c58769" d="M207.08,2.45l.49,0a2.15,2.15,0,0,1,.52.18,1.64,1.64,0,0,1,.49.36,1.74,1.74,0,0,1,.35.59,2.67,2.67,0,0,1,.15.89,2.76,2.76,0,0,1-.53,1.75,2.88,2.88,0,0,1-1.55,1,9.29,9.29,0,0,1-1.44.18h-.08l0,.07a3,3,0,0,1,.38,1.67,3.86,3.86,0,0,1-.53,1.8,4.35,4.35,0,0,1-1.72,1.71,4.92,4.92,0,0,1-2.46.62h-.1a5.71,5.71,0,0,1-2-.35,4.08,4.08,0,0,1-1.47-.88,4.35,4.35,0,0,1-.91-1.18,3.62,3.62,0,0,1-.42-1.33,4,4,0,0,1,0-1,3.92,3.92,0,0,1,.32-1,4,4,0,0,1,.65-1,4.25,4.25,0,0,1,1.07-.82,5.86,5.86,0,0,1,1.49-.58l.11,0-.1-.06a3.08,3.08,0,0,1-1-1,2.6,2.6,0,0,1-.35-1.23v0a2.56,2.56,0,0,1,1-2A3.74,3.74,0,0,1,202,0h0a3.83,3.83,0,0,1,2.14.61,2.87,2.87,0,0,1,1.24,1.57l-1.3.69a3.49,3.49,0,0,0-.81-1.81,2.2,2.2,0,0,0-1.5-.82,1.54,1.54,0,0,0-1.28.48,2.28,2.28,0,0,0-.62,1.44,2.72,2.72,0,0,0,2.17,3.14l0,.19a6.93,6.93,0,0,0-1.42.13,3.73,3.73,0,0,0-1.06.4,3.44,3.44,0,0,0-.7.52A3.06,3.06,0,0,0,198,8.89a4,4,0,0,0,.54,1.89,3.76,3.76,0,0,0,1.28,1.37,3.3,3.3,0,0,0,1.69.5h0a2.9,2.9,0,0,0,2.77-1.53,4.09,4.09,0,0,0,.44-2,3.46,3.46,0,0,0-.48-1.73h-.85a3.11,3.11,0,0,0-2.17.51.82.82,0,0,0-.24.64,1.3,1.3,0,0,0,.46.93l-.73.72a2,2,0,0,1-.29-.54,3.06,3.06,0,0,1-.16-.77,1.44,1.44,0,0,1,.18-.84c.51-1,1.93-1.49,4.27-1.49h.14a8.51,8.51,0,0,0,2.31-.27,2.35,2.35,0,0,0,1.29-.77,1.15,1.15,0,0,0,.1-1.1,1.27,1.27,0,0,0-.61-.65,3,3,0,0,0-1.14-.33Z" transform="translate(0 0)"/><path class="ff53b212-5294-4769-94fc-c6fbd1c58769" d="M226.68,12a7.86,7.86,0,0,1-2.36-.34,5.1,5.1,0,0,1-1.81-1l.38-.82a6,6,0,0,0,1.7,1,6.18,6.18,0,0,0,2.09.31,3.65,3.65,0,0,0,2.28-.59A1.86,1.86,0,0,0,229.72,9a1.52,1.52,0,0,0-.55-1.25,4.27,4.27,0,0,0-1.82-.7l-1.61-.34a4.37,4.37,0,0,1-2.25-1,2.54,2.54,0,0,1-.75-1.92A2.92,2.92,0,0,1,223.25,2a3.25,3.25,0,0,1,1.4-1.15,5,5,0,0,1,2.06-.41,5,5,0,0,1,3.73,1.41l-.38.8a4.89,4.89,0,0,0-1.54-1,4.91,4.91,0,0,0-1.81-.31,3.36,3.36,0,0,0-2.15.64,2.08,2.08,0,0,0-.81,1.71,1.77,1.77,0,0,0,.51,1.34,3.43,3.43,0,0,0,1.65.71l1.64.34a5.28,5.28,0,0,1,2.39,1,2.22,2.22,0,0,1,.79,1.81,2.69,2.69,0,0,1-.49,1.61,3.18,3.18,0,0,1-1.4,1.09A5.48,5.48,0,0,1,226.68,12Z" transform="translate(0 0)"/><path class="ff53b212-5294-4769-94fc-c6fbd1c58769" d="M242,12a4.37,4.37,0,0,1-3.28-1.16,4.69,4.69,0,0,1-1.12-3.37V.61h1v6.8c0,2.48,1.14,3.71,3.42,3.71s3.43-1.23,3.43-3.71V.61h1V7.49a4.65,4.65,0,0,1-1.12,3.37A4.36,4.36,0,0,1,242,12Z" transform="translate(0 0)"/><path class="ff53b212-5294-4769-94fc-c6fbd1c58769" d="M257.58,12a7.77,7.77,0,0,1-2.36-.34,5.15,5.15,0,0,1-1.82-1l.38-.82a6.17,6.17,0,0,0,1.71,1,6.18,6.18,0,0,0,2.09.31,3.65,3.65,0,0,0,2.28-.59A1.88,1.88,0,0,0,260.62,9a1.53,1.53,0,0,0-.56-1.25,4.22,4.22,0,0,0-1.81-.7l-1.62-.34a4.45,4.45,0,0,1-2.25-1,2.57,2.57,0,0,1-.74-1.92,3,3,0,0,1,.5-1.71,3.31,3.31,0,0,1,1.4-1.15,5.57,5.57,0,0,1,5.8,1l-.39.8a4.85,4.85,0,0,0-1.53-1,5,5,0,0,0-1.81-.31,3.32,3.32,0,0,0-2.15.64,2.08,2.08,0,0,0-.81,1.71,1.77,1.77,0,0,0,.51,1.34,3.34,3.34,0,0,0,1.65.71l1.63.34a5.27,5.27,0,0,1,2.4,1,2.24,2.24,0,0,1,.78,1.81,2.76,2.76,0,0,1-.48,1.61,3.3,3.3,0,0,1-1.4,1.09A5.48,5.48,0,0,1,257.58,12Z" transform="translate(0 0)"/><path class="ff53b212-5294-4769-94fc-c6fbd1c58769" d="M271.11,11.89V1.49H266.9V.61h9.41v.88H272.1v10.4Z" transform="translate(0 0)"/><path class="ff53b212-5294-4769-94fc-c6fbd1c58769" d="M280.38,11.89,285.29.61h.88l4.89,11.28h-1l-1.3-3h-6l-1.28,3ZM285.7,1.83,283.06,8h5.32l-2.64-6.21Z" transform="translate(0 0)"/><path class="ff53b212-5294-4769-94fc-c6fbd1c58769" d="M297.77,11.89V.61h1V11.89Z" transform="translate(0 0)"/><path class="ff53b212-5294-4769-94fc-c6fbd1c58769" d="M306.49,11.89V.61h.78l7.14,9.62V.61h.91V11.89h-.77L307.4,2.26v9.63Z" transform="translate(0 0)"/><path class="ff53b212-5294-4769-94fc-c6fbd1c58769" d="M322,11.89,326.94.61h.88l4.89,11.28h-1l-1.3-3h-6.05l-1.28,3Zm5.33-10.06L324.71,8H330l-2.64-6.21Z" transform="translate(0 0)"/><path class="ff53b212-5294-4769-94fc-c6fbd1c58769" d="M339.42,11.89V.61h4.3a4.19,4.19,0,0,1,2.68.77,2.66,2.66,0,0,1,1,2.19,2.57,2.57,0,0,1-.49,1.59,3,3,0,0,1-1.35,1,2.79,2.79,0,0,1,1.54.93,2.76,2.76,0,0,1,.56,1.77,2.8,2.8,0,0,1-1,2.29,4.22,4.22,0,0,1-2.72.78Zm1-6.13h3.23a3.27,3.27,0,0,0,2.05-.55,1.91,1.91,0,0,0,.7-1.61,1.9,1.9,0,0,0-.7-1.6,3.27,3.27,0,0,0-2.05-.56h-3.23Zm0,5.3h3.47c1.84,0,2.77-.74,2.77-2.22a2,2,0,0,0-.69-1.7,3.34,3.34,0,0,0-2.08-.54h-3.47Z" transform="translate(0 0)"/><path class="ff53b212-5294-4769-94fc-c6fbd1c58769" d="M355,11.89V.61h1V11h5.89v.88Z" transform="translate(0 0)"/><path class="ff53b212-5294-4769-94fc-c6fbd1c58769" d="M368.31,11.89V.61h6.95v.85h-6V5.75h5.65V6.6h-5.65V11h6v.85Z" transform="translate(0 0)"/><path class="ff53b212-5294-4769-94fc-c6fbd1c58769" d="M185.67,130.1l-.08-.87.9-.06a1.78,1.78,0,0,0,1.31-.62,2.27,2.27,0,0,0,.47-1.49v-8.35h1v8.36a3,3,0,0,1-.69,2.1,2.81,2.81,0,0,1-2,.86Z" transform="translate(0 0)"/><path class="ff53b212-5294-4769-94fc-c6fbd1c58769" d="M197,130V118.71h6.94v.84h-6v4.29h5.64v.85H198v4.45h6V130Z" transform="translate(0 0)"/><path class="ff53b212-5294-4769-94fc-c6fbd1c58769" d="M213.87,130,210,118.71h1l3.38,9.82,3.4-9.82h.84l3.4,9.88,3.41-9.88h1L222.47,130h-.92l-3.38-9.8-3.41,9.8Z" transform="translate(0 0)"/><path class="ff53b212-5294-4769-94fc-c6fbd1c58769" d="M233.21,130V118.71h6.94v.84h-6v4.29h5.65v.85h-5.65v4.45h6V130Z" transform="translate(0 0)"/><path class="ff53b212-5294-4769-94fc-c6fbd1c58769" d="M247.23,130V118.71h1v10.4h5.89V130Z" transform="translate(0 0)"/><path class="ff53b212-5294-4769-94fc-c6fbd1c58769" d="M260.58,130V118.71h4.26a4,4,0,0,1,2.76.83,3,3,0,0,1,.95,2.37,3,3,0,0,1-.68,2,3.22,3.22,0,0,1-2,1,2.46,2.46,0,0,1,1.22,1.25l2.05,3.78h-1.07l-2-3.62a2.3,2.3,0,0,0-.92-1,3.18,3.18,0,0,0-1.38-.25h-2.29V130Zm1-5.72h3.15c1.9,0,2.85-.79,2.85-2.36s-.95-2.36-2.85-2.36h-3.15Z" transform="translate(0 0)"/><path class="ff53b212-5294-4769-94fc-c6fbd1c58769" d="M278.59,130v-5.41l-4.31-5.87h1.15l3.67,5,3.68-5h1.1l-4.3,5.88V130Z" transform="translate(0 0)"/><path class="ff53b212-5294-4769-94fc-c6fbd1c58769" d="M127.12,128.8v-6.35H131v.48h-3.37v2.41h3.18v.48h-3.18v2.5H131v.48Z" transform="translate(0 0)"/><path class="ff53b212-5294-4769-94fc-c6fbd1c58769" d="M136,128.87a4.54,4.54,0,0,1-1.33-.19,2.86,2.86,0,0,1-1-.58l.21-.45a3.88,3.88,0,0,0,1,.54,3.45,3.45,0,0,0,1.18.18,2,2,0,0,0,1.28-.34,1.06,1.06,0,0,0,.43-.87.87.87,0,0,0-.31-.7,2.48,2.48,0,0,0-1-.4l-.91-.19a2.46,2.46,0,0,1-1.27-.57,1.43,1.43,0,0,1-.42-1.08,1.68,1.68,0,0,1,.29-1,1.9,1.9,0,0,1,.78-.64,2.87,2.87,0,0,1,1.17-.23,2.8,2.8,0,0,1,2.09.79l-.21.45a2.8,2.8,0,0,0-.87-.56,2.71,2.71,0,0,0-1-.17,1.93,1.93,0,0,0-1.21.35,1.17,1.17,0,0,0-.46,1,1,1,0,0,0,.29.75,1.83,1.83,0,0,0,.93.4l.91.19a3,3,0,0,1,1.35.56,1.25,1.25,0,0,1,.44,1,1.57,1.57,0,0,1-.27.91,1.83,1.83,0,0,1-.79.61A3,3,0,0,1,136,128.87Z" transform="translate(0 0)"/><path class="ff53b212-5294-4769-94fc-c6fbd1c58769" d="M142.71,128.8V123h-2.37v-.5h5.3v.5h-2.37v5.85Z" transform="translate(0 0)"/><path class="ff53b212-5294-4769-94fc-c6fbd1c58769" d="M324.06,128.49v-.42l2.22-2.42a4.38,4.38,0,0,0,.7-1,2.1,2.1,0,0,0,.22-.91,1.12,1.12,0,0,0-.35-.89,1.56,1.56,0,0,0-1-.31,2.4,2.4,0,0,0-1.75.76l-.23-.45a2.55,2.55,0,0,1,.88-.58,2.85,2.85,0,0,1,1.13-.23,2.07,2.07,0,0,1,1.41.44,1.52,1.52,0,0,1,.5,1.23,2.38,2.38,0,0,1-.28,1.12,5.35,5.35,0,0,1-.85,1.17l-1.85,2H328v.49Z" transform="translate(0 0)"/><path class="ff53b212-5294-4769-94fc-c6fbd1c58769" d="M333.11,128.56a1.84,1.84,0,0,1-1.63-.83,4.41,4.41,0,0,1-.55-2.41,4.46,4.46,0,0,1,.55-2.43,2,2,0,0,1,3.26,0,4.42,4.42,0,0,1,.55,2.42,4.37,4.37,0,0,1-.56,2.42A1.83,1.83,0,0,1,333.11,128.56Zm0-.5a1.29,1.29,0,0,0,1.21-.67,4.15,4.15,0,0,0,.4-2.08,4.23,4.23,0,0,0-.39-2.08,1.46,1.46,0,0,0-2.44,0,5.74,5.74,0,0,0,0,4.16A1.32,1.32,0,0,0,333.11,128.06Z" transform="translate(0 0)"/><path class="ff53b212-5294-4769-94fc-c6fbd1c58769" d="M338.79,128.49V128h1.46v-5.16l-1.16.75-.26-.42,1.57-1h.39V128h1.37v.49Z" transform="translate(0 0)"/><path class="ff53b212-5294-4769-94fc-c6fbd1c58769" d="M347.1,128.56a2.42,2.42,0,0,1-1-.21,2,2,0,0,1-.79-.57l.22-.45a2.23,2.23,0,0,0,.73.55,2,2,0,0,0,.81.18,1.68,1.68,0,0,0,1.44-.71,3.66,3.66,0,0,0,.5-2.1v-.54a1.76,1.76,0,0,1-1.79,1.37,2,2,0,0,1-1-.25,1.86,1.86,0,0,1-.68-.71,2.14,2.14,0,0,1-.25-1,2.1,2.1,0,0,1,.26-1,1.86,1.86,0,0,1,.7-.72,2,2,0,0,1,1-.26,2,2,0,0,1,1.7.81,3.71,3.71,0,0,1,.6,2.26,4.2,4.2,0,0,1-.66,2.54A2.15,2.15,0,0,1,347.1,128.56Zm.24-3a1.4,1.4,0,0,0,1.06-.42,1.67,1.67,0,0,0,0-2.19,1.4,1.4,0,0,0-1.06-.42,1.42,1.42,0,0,0-1.06.42,1.67,1.67,0,0,0,0,2.19A1.42,1.42,0,0,0,347.34,125.59Z" transform="translate(0 0)"/></svg>